<svg xmlns="http://www.w3.org/2000/svg" viewBox="0 0 510.3 405.6"><path d="M156.4 124.4c0 31.2-25.9 61.1-77.6 61.1C34.6 185.6-2 165 0 124a2.7 2.7 0 012.5-2.3h35.8a2.3 2.3 0 012.3 2.3c1.5 20 14.2 32.7 40.6 32.7 27.2 0 34-14.2 34-23.6 0-35-97.2-15.2-97.2-74.4C18 28.2 42.7 0 94.5 0c38.8 0 69.6 15.2 71.8 54a2.3 2.3 0 01-2.3 2.4h-36a2.3 2.3 0 01-2.3-2.3c-1-14.8-13.7-25-33.7-25-19 0-33.5 8.7-33.5 21.7 0 32.5 98 15.5 98 73.6zM246 185.3c-49.8 0-80.5-30.5-80.5-75.1C165.5 48.2 209.7 0 268.4 0c49.5 0 81 28.7 81 74.1 0 58.7-43.5 111.2-103.4 111.2zm2-29.7c38 0 61.2-36.3 61.2-80 0-28.6-16.2-45.9-42.6-45.9-37.8 0-61.2 37.3-61.2 80 0 28.9 16.5 45.9 42.7 45.9zM429.6 141.9l-11.2-26.4h-25.7l-14 63.7a3 3 0 01-2.7 2.3h-34.8a1.8 1.8 0 01-1.8-2.3l21.1-86.5 19-86.6a3 3 0 012.8-2.3h67.3c37.8 0 60.7 15.7 60.7 45.7 0 32.7-18.6 55-50 62.7l28.2 67.3a1.6 1.6 0 01-1.6 2h-40.3a3.8 3.8 0 01-3-2zM447 32h-34.6l-13.4 55.3h40.3c16.3 0 32.8-9.9 32.8-33.5C472.2 39.1 464 32 447 32zM38.4 370a1.9 1.9 0 01-1.8-2.3l21.6-86.5L71 221h-49a1.9 1.9 0 01-1.8-2.3l5.6-24.1a3 3 0 012.8-2.3h137.6a1.8 1.8 0 011.8 2.3l-5.6 24.1a3 3 0 01-2.8 2.3h-49l-15.2 60.2L77 367.7a3 3 0 01-2.8 2.3z"/><path d="M222 373.8c-49.8 0-80.5-30.4-80.5-75.1 0-62 44.1-110.2 102.8-110.2 49.5 0 81 28.7 81 74.1 0 58.7-43.5 111.2-103.4 111.2zm2-29.7c38 0 61.1-36.3 61.1-80 0-28.7-16.3-46-42.6-46-37.9 0-61.2 37.4-61.2 80 0 29 16.5 46 42.7 46zM313 370a1.8 1.8 0 01-1.7-2.3l7.3-31.7a3 3 0 012.8-2.3h35a1.8 1.8 0 011.8 2.3l-7.4 31.7a3 3 0 01-2.8 2.3zm22.4-94.4a1.9 1.9 0 01-1.8-2.3l7.4-31.7a3 3 0 012.8-2.3h35a1.8 1.8 0 011.8 2.3l-7.4 31.7a3 3 0 01-2.8 2.3zM359.2 405.6a1.8 1.8 0 01-1.7-2.3l50-216.3a3 3 0 012.8-2.3h23.3a1.8 1.8 0 011.8 2.3l-50 216.3a3 3 0 01-2.8 2.2zM404.7 405.6a1.8 1.8 0 01-1.8-2.3l50-216.3a3 3 0 012.8-2.3H479a1.8 1.8 0 011.8 2.3l-50 216.3a3 3 0 01-2.8 2.2z"/></svg>