<svg width="23" height="19" viewBox="0 0 23 19" fill="none" xmlns="http://www.w3.org/2000/svg">
<path d="M11.5 0C8.73858 0 6.5 2.23858 6.5 5V8.3C6.5 11.0614 8.73857 13.3 11.5 13.3H12.3V10.45H11.38C10.2754 10.45 9.38 9.55457 9.38 8.45V4.85C9.38 3.74543 10.2754 2.85 11.38 2.85H17.94C19.0446 2.85 19.94 3.74543 19.94 4.85V8.45C19.94 9.55457 19.0446 10.45 17.94 10.45H17.3V13.3H17.82C20.5814 13.3 22.82 11.0614 22.82 8.3V5C22.82 2.23858 20.5814 0 17.82 0H11.5Z" fill="$fg"/>
<path d="M5 5.69995H5.4V8.54993H4.87988C3.77531 8.54993 2.87988 9.44536 2.87988 10.5499V14.1499C2.87988 15.2545 3.77531 16.1499 4.87988 16.1499H11.4399C12.5445 16.1499 13.4399 15.2545 13.4399 14.1499V10.5499C13.4399 9.44536 12.5445 8.54993 11.4399 8.54993H10.4V5.69995H11.32C14.0814 5.69995 16.32 7.93853 16.32 10.7V13.9999C16.32 16.7614 14.0814 19 11.32 19H5C2.23857 19 0 16.7614 0 14V10.7C0 7.93853 2.23858 5.69995 5 5.69995Z" fill="$fg"/>
</svg>
